<svg xmlns="http://www.w3.org/2000/svg" width="512" height="512" viewBox="0 0 612 612"><path d="M1.659 484.737l-.658-278.142c-.032-13.686 13.95-22.938 26.534-17.559l253.206 108.241c6.997 2.991 11.542 9.859 11.56 17.468l.658 278.142c.032 13.687-13.95 22.939-26.534 17.56L13.219 502.206c-6.997-2.991-11.543-9.859-11.56-17.469zm580.146-265.05L348.142 320.883l.608 257.406 233.664-101.196-.609-257.406m9.455-33.556c10.043-.025 19.056 8.054 19.081 19.022l.658 278.142c.018 7.609-4.495 14.5-11.478 17.523l-252.69 109.438c-2.493 1.079-5.047 1.583-7.534 1.59-10.044.023-19.058-8.055-19.083-19.022l-.658-278.143c-.019-7.609 4.495-14.5 11.479-17.523l252.69-109.437c2.493-1.081 5.046-1.584 7.535-1.59zM304.152 29.466L61.767 137.691l242.894 107.075 242.386-108.224L304.152 29.466M304.083 0c2.632-.006 5.266.533 7.728 1.618l266.403 117.439c15.112 6.663 15.163 28.088.082 34.821L312.451 272.577c-2.456 1.097-5.088 1.648-7.721 1.655-2.632.006-5.266-.533-7.728-1.618L30.6 155.175c-15.113-6.662-15.163-28.088-.083-34.821L296.361 1.655C298.818.558 301.449.006 304.083 0z"/></svg>