<svg xmlns="http://www.w3.org/2000/svg" width="86.02" height="86.02"><path d="M.354 48.874l.118 25.351c.001.326.181.624.467.779l20.249 10.602c.132.071.276.106.421.106h.002c.061.068.129.133.211.182.14.084.297.126.455.126.146 0 .291-.035.423-.106l19.992-10.842c.183-.099.315-.261.392-.445.081.155.203.292.364.379l20.248 10.602c.132.071.277.106.422.106h.002c.062.068.129.133.21.182.142.084.299.126.456.126.146 0 .29-.035.422-.106L85.2 75.071c.287-.154.467-.456.467-.783V47.911c0-.008-.004-.016-.004-.022 0-.006.002-.013.002-.021-.001-.023-.01-.049-.014-.072-.007-.05-.014-.098-.027-.146-.011-.031-.023-.062-.038-.093-.019-.042-.037-.082-.062-.12-.019-.03-.04-.058-.062-.084-.028-.034-.059-.066-.092-.097-.025-.023-.054-.045-.083-.066-.02-.012-.034-.03-.056-.043-.02-.011-.041-.017-.062-.025-.019-.01-.03-.022-.049-.029l-20.603-9.978c-.082-.034-.17-.038-.257-.047V10.865c0-.007-.002-.015-.002-.022-.001-.007.001-.013.001-.02-.001-.025-.012-.049-.015-.073-.007-.049-.014-.098-.027-.145-.01-.032-.024-.063-.038-.093-.02-.042-.036-.083-.062-.12-.02-.03-.041-.057-.062-.084-.028-.034-.058-.067-.091-.097-.025-.023-.055-.045-.083-.065-.021-.014-.035-.032-.056-.045-.021-.011-.042-.016-.062-.026-.019-.009-.031-.021-.048-.027L43.118.07c-.24-.102-.512-.093-.746.025L22.009 10.71c-.299.151-.487.456-.489.79 0 .006.002.011.002.016-.037.099-.063.202-.063.312l.118 25.233c-.106.011-.213.03-.311.079L.903 47.755c-.298.15-.487.456-.489.791 0 .005.003.009.003.015-.038.098-.064.203-.063.313zm60.967-37.91L43.372 21l-19.005-9.485 18.438-9.646 18.516 9.095zm1.165 26.044l-18.214 9.586V22.535l18.214-10.18v24.653zm3.188 22.572l18.214-10.179v24.355l-18.214 9.883V59.58zM45.77 48.559l18.438-9.646 18.515 9.099-17.948 10.033-19.005-9.486zM23.165 59.58L41.38 49.402v24.355l-18.215 9.882V59.58zM3.262 48.559L21.7 38.913l18.515 9.099-17.949 10.033-19.004-9.486z"/></svg>